<svg width="81" height="100" viewBox="0 0 81 100" fill="none" xmlns="http://www.w3.org/2000/svg">
<path d="M9.09304 42.6213C7.35003 41.1386 6.47852 39.0609 6.47852 36.3881C6.47852 33.0939 7.55891 30.7514 9.7197 29.3607C11.8805 27.97 14.9073 27.2733 18.8 27.2705H27.5151V25.5565C27.5151 23.4662 26.9465 21.9404 25.8219 20.9579C24.6972 19.9755 22.7135 19.5031 19.8832 19.5031C18.4331 19.5031 16.9878 19.67 15.5754 20.0006C14.2414 20.2975 12.9431 20.7391 11.7034 21.3175C11.4557 21.4133 11.2002 21.4874 10.9398 21.539C10.6493 21.539 10.3754 21.3175 10.1098 20.8785L8.74859 18.295C8.60711 18.0635 8.53105 17.7976 8.52864 17.5258C8.54012 17.3538 8.6041 17.1895 8.71182 17.0556C8.81955 16.9216 8.96574 16.8245 9.13039 16.7774C10.782 15.9624 12.5333 15.3706 14.3387 15.0175C16.4265 14.5743 18.5546 14.3529 20.6883 14.3569C22.8626 14.3223 25.0305 14.6039 27.125 15.193C28.2184 14.4655 29.3658 13.824 30.5571 13.2742C31.392 12.8538 32.2821 12.5553 33.2007 12.3879L33.6904 12.3378C33.9458 12.3182 34.2013 12.3749 34.4249 12.5008C34.6057 12.6338 34.7325 12.8284 34.7818 13.0484L35.8152 15.8494C35.8681 16.0295 35.9043 16.2143 35.9231 16.4012C35.9231 16.7649 35.6865 17.0575 35.2176 17.2791L32.3125 18.596C33.7651 20.4967 34.4927 23.0593 34.4955 26.2839V42.0443C34.537 42.5823 34.3705 43.1155 34.0307 43.5326C33.7236 43.8629 33.2007 44.0259 32.4246 44.0259H29.5943C29.0219 44.0785 28.4521 43.9012 28.0089 43.5326C27.8346 43.3299 27.7019 43.0943 27.6185 42.8396C27.5352 42.5848 27.5029 42.316 27.5234 42.0485V32.216H18.5261C16.5617 32.216 15.1535 32.5184 14.3014 33.1232C13.4492 33.728 13.0218 34.78 13.019 36.2794C13.019 37.6339 13.3731 38.5857 14.0814 39.1347C14.7897 39.6838 15.8715 39.9625 17.3267 39.9708C18.4617 39.9888 19.5893 39.7844 20.6468 39.3688L21.0825 39.256C21.373 39.256 21.5764 39.4942 21.6843 39.9708L22.452 42.6965C22.4889 42.8213 22.507 42.9509 22.506 43.0811C22.506 43.4114 22.286 43.6664 21.8503 43.8503C20.5057 44.5108 18.5067 44.8397 15.8535 44.8369C13.0951 44.8425 10.8416 44.1039 9.09304 42.6213Z" fill="white"/>
<path d="M22.2607 8.65546C21.7073 8.03117 21.4307 7.00695 21.4307 5.58279V2.45161C21.4307 1.68239 21.5676 1.15983 21.8457 0.883921C22.1237 0.608008 22.6383 0.465871 23.4019 0.465871H25.3649C25.8816 0.414797 26.3982 0.564324 26.8091 0.883921C27.0789 1.15983 27.2241 1.68239 27.2241 2.45161V5.19819C29.075 5.01425 31.3036 4.85121 33.8974 4.70071C36.4912 4.55021 38.4168 4.48333 39.6494 4.48333C40.3756 4.48333 40.8612 4.60038 41.0977 4.83867C41.3766 5.22794 41.5023 5.70757 41.4505 6.18479V7.8319C41.4948 8.31951 41.3653 8.80708 41.0853 9.20728C40.8487 9.46229 40.3632 9.59189 39.6369 9.59189H25.2321C23.8128 9.59189 22.8223 9.27974 22.2607 8.65546Z" fill="white"/>
<path d="M58.101 62.8889C57.9623 62.8243 57.8449 62.7212 57.7625 62.5915C57.6801 62.4619 57.6363 62.3113 57.6362 62.1574C57.6377 61.9404 57.6903 61.7269 57.7897 61.5345L59.1343 59.0262C59.3086 58.6081 59.5493 58.4033 59.8606 58.4033C60.1166 58.4078 60.3671 58.4799 60.5868 58.6123C62.7562 59.7005 65.157 60.2373 67.5797 60.1758C69.995 60.1758 71.7394 59.61 72.8129 58.4785C73.8864 57.347 74.4729 55.5996 74.5725 53.2362C73.7659 53.8704 72.8397 54.3327 71.8501 54.5948C70.6782 54.9189 69.4671 55.0765 68.252 55.0631C64.1434 55.0631 61.0696 54.1587 59.0306 52.3499C56.9915 50.5412 55.9734 47.9144 55.9761 44.4697V41.1253C55.9761 38.9709 55.5362 37.3977 54.6564 36.4055C53.7766 35.4133 52.2342 34.9187 50.0291 34.9214C48.726 34.8973 47.4286 35.101 46.1945 35.5234C45.0921 35.9244 44.066 36.5126 43.1608 37.2625L43.9369 38.8804C44.1851 39.3604 44.3759 39.8684 44.5054 40.3937C44.6223 40.9769 44.6752 41.5714 44.6631 42.1662V51.5598C44.6227 51.9358 44.7137 52.3143 44.9204 52.63C45.0491 52.7383 45.1981 52.8193 45.3585 52.8681C45.519 52.9169 45.6876 52.9327 45.8542 52.9143H47.3026C47.4953 52.8695 47.6962 52.8748 47.8863 52.9297C48.0764 52.9846 48.2496 53.0874 48.3894 53.2283C48.5293 53.3691 48.6313 53.5436 48.6858 53.7351C48.7403 53.9266 48.7456 54.129 48.7011 54.3231V56.6182C48.7011 57.2118 48.5725 57.6006 48.3152 57.7929C48.0579 57.9852 47.5267 58.0814 46.734 58.0814H41.2725C39.9943 58.0814 39.1311 57.8291 38.6829 57.3247C38.2347 56.8203 38.0106 55.9591 38.0106 54.7412V40.7658L36.7158 37.6806C36.4733 37.1918 36.3321 36.6584 36.3008 36.1129C36.3039 35.8834 36.3563 35.6573 36.4545 35.4502C36.5526 35.2431 36.6942 35.0598 36.8693 34.9131C40.8063 31.5687 45.175 29.8965 49.9752 29.8965C54.4655 29.8965 57.7026 30.8524 59.6863 32.7643C61.67 34.6762 62.6632 37.5872 62.666 41.4974V44.6285C62.666 46.5042 63.1239 47.8977 64.0397 48.809C64.9555 49.7204 66.4481 50.1733 68.5176 50.1677C70.5539 50.1677 72.0313 49.7232 72.9498 48.8341C73.8684 47.9451 74.3249 46.5808 74.3193 44.7414V32.618C74.2976 32.3556 74.3279 32.0915 74.4084 31.841C74.4889 31.5906 74.618 31.3587 74.7883 31.159C74.9949 30.9848 75.2335 30.8534 75.4906 30.7723C75.7477 30.6912 76.0182 30.6621 76.2865 30.6866H78.984C80.3286 30.6866 81.0009 31.3304 81.0009 32.618V50.0548C81.0009 55.0714 79.9745 58.8339 77.9216 61.3422C75.8687 63.8505 72.4587 65.1046 67.6917 65.1046C63.8239 65.1241 60.627 64.3856 58.101 62.8889Z" fill="white"/>
<path d="M21.8085 81.1034C21.6693 81.039 21.5513 80.936 21.4683 80.8064C21.3852 80.6768 21.3405 80.526 21.3395 80.3718C21.3426 80.1532 21.3967 79.9384 21.4972 79.7447L22.8418 77.2364C23.0161 76.8184 23.2569 76.6094 23.5681 76.6094C23.8242 76.6139 24.0746 76.686 24.2944 76.8184C26.4627 77.9099 28.864 78.4483 31.2872 78.3861C33.7025 78.3861 35.4455 77.8203 36.5162 76.6888C37.587 75.5573 38.1749 73.8098 38.28 71.4464C37.4728 72.0778 36.5466 72.5372 35.5576 72.7967C34.385 73.1255 33.1725 73.2873 31.9553 73.2775C27.8413 73.2775 24.7675 72.3731 22.7339 70.5644C20.7004 68.7556 19.6823 66.1289 19.6795 62.6841V59.3397C19.6795 57.1826 19.2382 55.6079 18.3556 54.6158C17.4731 53.6236 15.9293 53.1345 13.7242 53.1484C12.4224 53.1246 11.1264 53.3283 9.89371 53.7504C8.7826 54.1527 7.74811 54.7437 6.83512 55.4979L7.61533 57.1115C7.86172 57.5939 8.05248 58.103 8.18389 58.6291C8.30094 59.2123 8.35383 59.8067 8.34159 60.4016V69.791C8.29978 70.1671 8.39088 70.546 8.59889 70.8612C8.72991 70.9687 8.88166 71.0476 9.04454 71.093C9.20742 71.1383 9.37788 71.149 9.5451 71.1245H10.9935C11.3825 71.0837 11.7721 71.1961 12.0808 71.4381C12.321 71.749 12.4326 72.1415 12.392 72.5334V74.8285C12.392 75.4221 12.2634 75.8109 12.0061 76.0032C11.7488 76.1955 11.2176 76.2916 10.4249 76.2916H4.98005C3.70184 76.2916 2.83863 76.0366 2.39043 75.535C1.94222 75.0333 1.71812 74.1679 1.71812 72.9514V59.0011L0.415004 55.8992C0.172044 55.4121 0.0308015 54.8799 0 54.3357C0.0048852 54.1083 0.0581727 53.8847 0.15626 53.6798C0.254347 53.475 0.394948 53.2938 0.568556 53.1484C4.50557 49.804 8.88109 48.1318 13.6951 48.1318C18.1855 48.1318 21.4225 49.0878 23.4063 50.9997C25.39 52.9115 26.3832 55.8156 26.386 59.7118V62.843C26.386 64.7242 26.8439 66.1177 27.7596 67.0235C28.6754 67.9293 30.1681 68.3807 32.2375 68.378C34.2766 68.378 35.754 67.9348 36.6698 67.0486C37.5856 66.1623 38.0421 64.7981 38.0393 62.9559V50.8324C38.0177 50.5694 38.048 50.3047 38.1285 50.0536C38.209 49.8025 38.3381 49.5699 38.5083 49.3693C38.9276 49.0217 39.4655 48.8536 40.0064 48.901H42.6998C44.0486 48.901 44.4885 49.3191 44.4885 50.6067L44.7209 68.2567C44.7209 73.2733 43.6944 77.0358 41.6415 79.5441C39.5887 82.0524 36.1787 83.3065 31.4117 83.3065C27.5272 83.3316 24.3262 82.5972 21.8085 81.1034Z" fill="white"/>
<path d="M58.9308 97.7631V80.4642C58.9308 78.5607 58.5767 77.1979 57.8684 76.3757C57.1601 75.5535 55.8971 75.1355 54.0794 75.1216C53.1254 75.126 52.1748 75.2367 51.2449 75.4518C50.3963 75.6277 49.5725 75.9085 48.7922 76.2879C48.5784 76.4218 48.3341 76.4981 48.0826 76.5095C47.8253 76.5095 47.6095 76.3046 47.4269 75.9033L46.1196 72.9352C46.0726 72.7734 46.0365 72.6086 46.0117 72.4419C46.0117 72.1868 46.2649 71.9151 46.7712 71.6058C48.9154 70.4742 51.6419 69.9071 54.9509 69.9043C58.6583 69.9043 61.4111 70.7404 63.2095 72.4126C65.0079 74.0848 65.907 76.6851 65.907 80.2134V97.7297C65.907 98.9392 65.2707 99.544 63.998 99.544H60.7817C59.5478 99.5663 58.9308 98.9727 58.9308 97.7631Z" fill="white"/>
</svg>
